# xmcd
#
# Track frame offsets: 
#        150
#        19139
#        28664
#        41752
#        57164
#        70400
#        79700
#        91925
#        107000
#        116525
#        127260
#        135135
#        144210
#        158835
#        174510
#        183585
#        197010
#        210585
#
# Disc length: 2963 seconds
#
# Revision: 0
# Processed by: cddbd v1.5.2PL0 Copyright (c) Steve Scherf et al.
# Submitted via: ExactAudioCopy v0.99pb5
#
DISCID=f40b9112
DTITLE=Voices - Julkonsert Lunds Domkyrka Juldagen 2004
DYEAR=2004
DGENRE=Classical
TTITLE0=Joseph est bien Marié - C. Balbastre - Janåke Larsson
TTITLE1=När juldagsmorgon glimmar - Tysk julmelodi
TTITLE2=Liten julsvit i arr av Folke Alm - In dulci jubilo - Medeltida
TTITLE2=hymn
TTITLE3=Liten julsvit i arr av Folke Alm - Betlehem - Ch. Gounod
TTITLE4=Liten julsvit i arr av Folke Alm - Det är en ros utsprungen - 
TTITLE4=M. Praetorius m.fl.
TTITLE5=Liten julsvit i arr av Folke Alm - På krubbans strå - I. Widée
TTITLE5=n
TTITLE6=Liten julsvit i arr av Folke Alm - Vart går du herdinna lilla 
TTITLE6=Fransk julchant sättn. Folke Alm
TTITLE7=Liten julsvit i arr av Folke Alm - Stilla natt - F. Gruber sät
TTITLE7=tn. Folke Alm
TTITLE8=Liten julsvit i arr av Folke Alm - I kristne, träden fram för 
TTITLE8=Gud - I. Schröder
TTITLE9=Liten julsvit i arr av Folke Alm - Herdarnas lydnad - Frans ju
TTITLE9=lhymn sättn. S.-E. Erlö
TTITLE10=Liten julsvit i arr av Folke Alm - Lov ske Dig Herre Jesus Kr
TTITLE10=ist - Medeltida Hymn sättn. A. Runbäck
TTITLE11=Liten julsvit i arr av Folke Alm - Gläns över sjö och strand 
TTITLE11=sättn. I. Widéen
TTITLE12=Liten julsvit i arr av Folke Alm - Förunderligt och märkligt 
TTITLE12=C. Nielsen
TTITLE13=Liten julsvit i arr av Folke Alm - Look! Shepherds of Bethleh
TTITLE13=em - J. Ivor John (t) F. Bohlin (m)
TTITLE14=Liten julsvit i arr av Folke Alm - Hark! The Herald Angels Si
TTITLE14=ng - F. Mendelssohn/D. Wilcocks
TTITLE15=Liten julsvit i arr av Folke Alm - Ej upplysta gårdar - Chris
TTITLE15=tmas carol sättn. D. Wilcocks
TTITLE16=Liten julsvit i arr av Folke Alm - Birthday carol - D. Wilcoc
TTITLE16=ks
TTITLE17=Liten julsvit i arr av Folke Alm - Ett barn är fött på denna 
TTITLE17=dag - Tysk julsång sättn. F. Alm
EXTD=
EXTT0=
EXTT1=
EXTT2=
EXTT3=
EXTT4=
EXTT5=
EXTT6=
EXTT7=
EXTT8=
EXTT9=
EXTT10=
EXTT11=
EXTT12=
EXTT13=
EXTT14=
EXTT15=
EXTT16=
EXTT17=
PLAYORDER=
